<?xml version="1.0" encoding="UTF-8"?>
<svg version="1.1" xmlns="http://www.w3.org/2000/svg" width="2000" height="1500">

<path d="M0 0 C660 0 1320 0 2000 0 C2000 495 2000 990 2000 1500 C1340 1500 680 1500 0 1500 C0 1005 0 510 0 0 Z " fill="#2f2b2b" transform="translate(0,0)"/>
<path d="M0 0 C1.62477213 -0.00551503 1.62477213 -0.00551503 3.28236794 -0.01114148 C6.89522041 -0.02211362 10.50804406 -0.02601116 14.12091064 -0.02983093 C16.71867462 -0.0361006 19.31643771 -0.04274784 21.91419983 -0.04974365 C29.69704361 -0.06943137 37.47988855 -0.07956486 45.26275098 -0.08847144 C48.20104915 -0.09198493 51.13934627 -0.0961312 54.07764356 -0.1003111 C67.05550084 -0.1187725 80.03335815 -0.13451858 93.01122665 -0.14220905 C96.18173982 -0.14411856 99.35225298 -0.14603895 102.52276611 -0.147995 C103.31066222 -0.14847874 104.09855834 -0.14896248 104.91033009 -0.14946087 C117.65083961 -0.15774701 130.39125483 -0.18306308 143.13172325 -0.21557567 C156.24816537 -0.24877148 169.36455976 -0.26666909 182.48104405 -0.26985329 C189.83079337 -0.27200695 197.18040518 -0.28058593 204.53011322 -0.30631447 C211.45443484 -0.33049972 218.37850688 -0.3337693 225.30286217 -0.32355309 C227.82899739 -0.32306115 230.35514534 -0.32927898 232.88124275 -0.34310913 C273.03723262 -0.55046368 316.73608185 12.54957717 346.06329346 41.31904602 C346.5550708 41.80824524 347.04684814 42.29744446 347.55352783 42.8014679 C348.72502047 43.95290645 349.93736557 45.06252715 351.15704346 46.16279602 C372.08272363 65.41442178 381.7588717 97.07043179 383.09462738 124.70467377 C383.35752416 133.93718844 383.34891847 143.17083195 383.32564497 152.40626383 C383.31791781 156.44725502 383.32513025 160.48822833 383.32980347 164.52922058 C383.33522753 171.31532008 383.32816231 178.10132095 383.31378174 184.8874054 C383.29750145 192.6581356 383.30272372 200.42862897 383.31926095 208.19935334 C383.33302021 214.94237787 383.33472496 221.68533245 383.32694495 228.42836654 C383.32234145 232.42405101 383.32143421 236.41962552 383.33155441 240.41530228 C383.44019104 290.10044414 383.44019104 290.10044414 375.92266846 310.14717102 C375.65857178 310.86388977 375.3944751 311.58060852 375.12237549 312.31904602 C362.15552502 346.95465766 337.40999233 365.85465937 305.92266846 383.33467102 C305.05577393 383.81669983 304.18887939 384.29872864 303.29571533 384.79536438 C302.09011963 385.4548407 302.09011963 385.4548407 300.86016846 386.12763977 C300.14731689 386.51846741 299.43446533 386.90929504 298.70001221 387.31196594 C296.92266846 388.14717102 296.92266846 388.14717102 294.92266846 388.14717102 C305.82620164 406.3614433 316.781021 424.5431247 327.81378174 442.67939758 C330.99892823 447.91594744 334.17881836 453.15568888 337.35916138 458.39515686 C339.1301204 461.31262242 340.90141102 464.22988664 342.67266846 467.14717102 C343.38100338 468.31383672 344.08933672 469.48050339 344.79766846 470.64717102 C345.14829346 471.22467102 345.49891846 471.80217102 345.86016846 472.39717102 C349.04766847 477.64717104 349.04766847 477.64717104 350.11009216 479.39704895 C350.81867556 480.5641251 351.52726321 481.73119866 352.2358551 482.89826965 C354.00289721 485.80865018 355.7698663 488.71907499 357.53668213 491.6295929 C360.76934431 496.95466897 364.00262052 502.27936835 367.23849487 507.60249329 C374.30108794 519.22078996 381.35424721 530.84404406 388.33721924 542.51045227 C392.56826914 549.57218437 396.83638645 556.61125419 401.11016846 563.64717102 C401.46699707 564.23486267 401.82382568 564.82255432 402.19146729 565.42805481 C405.90033807 571.53646399 409.61298639 577.64251485 413.3379364 583.74113464 C440.73807724 628.60303395 440.73807724 628.60303395 438.92266846 643.14717102 C435.96891247 655.35231369 426.19120318 665.6937989 415.91485596 672.47138977 C413.62163759 673.78366872 411.28608373 674.96546339 408.92266846 676.14717102 C407.6874529 676.80444796 406.45315333 677.46344787 405.21954346 678.12373352 C393.36937055 684.37751507 380.38059446 690.22148595 366.81329346 686.23310852 C351.49384968 680.32635781 345.72474602 668.68759388 337.73516846 655.08467102 C337.04219336 653.90952491 336.34890693 652.73456233 335.65533447 651.55976868 C334.17944435 649.05963173 332.70456612 646.55890197 331.23028564 644.05781555 C327.28687589 637.3713923 323.3232367 630.69695424 319.36016846 624.02217102 C318.95770905 623.34411407 318.55524963 622.66605713 318.14059448 621.967453 C312.33307419 612.18412349 306.49496118 602.41970365 300.63214111 592.66938782 C295.05089279 583.37951736 289.5201945 574.05997221 283.99200439 564.73847961 C278.8713049 556.10464781 273.73415605 547.48145817 268.55865479 538.88032532 C263.39149785 530.28263904 258.2807028 521.65152671 253.16339111 513.02412415 C248.43533909 505.05371598 243.70070555 497.08776068 238.92266846 489.14717102 C234.20142978 481.3008779 229.52321429 473.42949564 224.85195923 465.5533905 C218.62376816 455.05235822 212.38902273 444.55552035 206.11016846 434.08467102 C205.51542725 433.09241516 204.92068604 432.1001593 204.30792236 431.07783508 C201.19186138 425.88980253 198.051587 420.71774124 194.88360596 415.56123352 C194.22980957 414.4952594 193.57601318 413.42928528 192.90240479 412.33100891 C191.65110147 410.29383677 190.39590344 408.2590503 189.1362915 406.227005 C188.30545044 404.87457703 188.30545044 404.87457703 187.45782471 403.49482727 C186.96677246 402.70084534 186.47572021 401.9068634 185.9697876 401.08882141 C184.92266846 399.14717102 184.92266846 399.14717102 184.92266846 397.14717102 C184.01335571 397.15605347 183.10404297 397.16493591 182.16717529 397.17408752 C173.5754912 397.25441246 164.98393419 397.31522624 156.39196014 397.35441971 C151.97527477 397.3752473 147.55890106 397.40347594 143.14239502 397.44892883 C138.87595072 397.49255991 134.60980519 397.51634441 130.34315491 397.52667999 C128.71972453 397.53404053 127.09630953 397.54841383 125.4730072 397.57009125 C109.83059631 397.77057019 109.83059631 397.77057019 102.92266846 393.14717102 C102.05641846 392.61092102 101.19016846 392.07467102 100.29766846 391.52217102 C90.85349453 382.07799709 87.87081875 368.9610932 87.73223877 355.99482727 C87.74997325 342.91860334 89.2054792 328.98200179 98.92266846 319.14717102 C107.88654772 312.63071608 115.50139389 310.85013937 126.41314697 310.87593079 C128.1387812 310.86809067 128.1387812 310.86809067 129.89927673 310.86009216 C132.39390769 310.84986358 134.88855991 310.84407375 137.38321114 310.84221077 C141.34012062 310.83854153 145.29686163 310.82214795 149.25370789 310.80145264 C159.08652998 310.7523908 168.91939907 310.72147671 178.75231934 310.70014954 C186.38815723 310.68355834 194.02384655 310.66053913 201.65958542 310.61712879 C204.94247279 310.59905159 208.22511513 310.58855363 211.50805855 310.58842659 C215.18103313 310.588233 218.85352864 310.56985244 222.52642822 310.54780579 C223.59235199 310.55238297 224.65827576 310.55696014 225.75650024 310.56167603 C239.09831918 310.43534391 254.36629039 307.24161118 264.49688721 297.85810852 C276.19798744 283.81678824 280.07508656 267.88168476 280.06793213 249.97651672 C280.07129074 248.76582016 280.07464935 247.5551236 280.07810974 246.30773926 C280.08595827 243.00164908 280.08928598 239.69562174 280.08992553 236.38952661 C280.09063887 234.31813495 280.09277859 232.24674977 280.09542274 230.17535973 C280.10466256 222.93199118 280.10875953 215.68864097 280.10797119 208.44526672 C280.10737145 201.72146911 280.11790642 194.99775199 280.13371485 188.27397472 C280.14684755 182.47921034 280.15215267 176.68447208 280.15151578 170.88969296 C280.15126238 167.43865351 280.15402508 163.98768561 280.16469383 160.53666115 C280.17455011 156.67930659 280.17159318 152.8221562 280.16558838 148.96479797 C280.17120789 147.84074554 280.17682739 146.71669312 280.18261719 145.55857849 C280.14142819 135.08515204 279.2154837 125.20972842 274.17266846 115.89717102 C273.81559814 115.21606262 273.45852783 114.53495422 273.09063721 113.83320618 C266.17237268 100.89865516 257.99919781 93.85811618 243.92266846 89.14717102 C239.21541976 88.17785604 234.6241955 87.99530391 229.83615112 87.98895264 C229.03881542 87.98401466 228.24147971 87.97907668 227.41998231 87.97398907 C224.75763101 87.9586739 222.09530372 87.95026972 219.43292236 87.94184875 C217.52072948 87.93226553 215.60853869 87.92225518 213.6963501 87.91184998 C208.51093381 87.88484306 203.32550845 87.86381069 198.1400609 87.84384799 C192.71881495 87.82196244 187.2975968 87.79458632 181.87637329 87.76779175 C171.613041 87.71789961 161.34969326 87.67294787 151.08633077 87.62976938 C139.40078495 87.58036728 127.71526703 87.52546018 116.0297482 87.47008979 C91.99408099 87.35632314 67.95838701 87.24947253 43.92266846 87.14717102 C43.92418734 88.33602126 43.92570622 89.52487151 43.92727113 90.74974751 C43.99395401 143.14952417 44.05566413 195.54930455 44.09204102 247.94911194 C44.09259324 248.74254723 44.09314547 249.53598252 44.09371443 250.3534613 C44.10568635 267.59736949 44.11676704 284.84127816 44.12692977 302.08518751 C44.13191908 310.54172118 44.1371053 318.99825472 44.14239502 327.45478821 C44.14291806 328.29631038 44.14344109 329.13783255 44.14397998 330.00485539 C44.16102227 357.27601631 44.19106519 384.54714405 44.22785734 411.81828487 C44.26560054 439.84530496 44.29021321 467.87230669 44.29832842 495.89935176 C44.29948102 499.85889864 44.30078357 503.81844545 44.30217743 507.77799225 C44.30244712 508.55728004 44.30271681 509.33656784 44.30299468 510.13947042 C44.30771968 522.67871641 44.32626685 535.21790561 44.34999659 547.75712846 C44.37356343 560.36640289 44.3825359 572.97562107 44.37667397 585.58491674 C44.37390138 592.41566299 44.37753716 599.24625725 44.39949036 606.07697296 C44.41896368 612.33211887 44.41993298 618.58698629 44.40626404 624.84214506 C44.40457477 627.10345284 44.40964201 629.36477804 44.42220119 631.62605157 C44.50050788 646.59726537 44.14947575 660.18013778 33.92266846 672.14717102 C23.31563872 682.77847313 8.61464532 684.33791433 -5.57733154 684.39717102 C-6.78131592 684.41779602 -7.98530029 684.43842102 -9.22576904 684.45967102 C-24.00977029 684.52325812 -36.95689705 681.75712411 -47.96014404 671.55342102 C-56.51995603 661.82492622 -57.23350436 651.01941902 -57.20317268 638.70818424 C-57.20462612 637.67680703 -57.20607957 636.64542982 -57.20757705 635.58279875 C-57.21123014 632.12239419 -57.20775379 628.66203388 -57.20431519 625.20162964 C-57.20546727 622.69738538 -57.20705539 620.19314129 -57.20904243 617.68889755 C-57.21235027 612.24185271 -57.21254607 606.79482142 -57.20999527 601.34777641 C-57.20621243 593.24776547 -57.20814673 585.14776288 -57.21120358 577.04775199 C-57.21646999 562.58076387 -57.21601264 548.11378017 -57.21312466 533.64679162 C-57.21060963 520.98590115 -57.20995216 508.3250123 -57.21114731 495.66412163 C-57.21122369 494.82446517 -57.21130008 493.98480872 -57.21137878 493.11970813 C-57.21169011 489.71130279 -57.21200851 486.30289745 -57.21233854 482.89449212 C-57.215398 450.91648722 -57.2126234 418.93848513 -57.20724165 386.96048067 C-57.20249643 358.54866957 -57.20292025 330.13686294 -57.20770264 301.72505188 C-57.2130572 269.80723675 -57.2151806 237.8894241 -57.21209037 205.97160858 C-57.21176965 202.56908445 -57.21145681 199.16656031 -57.21114731 195.76403618 C-57.21106823 194.92624265 -57.21098915 194.08844912 -57.21090768 193.2252679 C-57.20977014 180.57289279 -57.21110063 167.92051947 -57.21362686 155.26814461 C-57.21648509 140.88126601 -57.2157735 126.49439253 -57.21034612 112.10751457 C-57.2074087 104.05539174 -57.20721979 96.00327997 -57.21099229 87.95115742 C-57.21349739 81.94147236 -57.21078243 75.93180166 -57.20601772 69.92211746 C-57.20489879 67.48883454 -57.20547315 65.05555013 -57.20789351 62.62226815 C-57.21092786 59.31882389 -57.20782142 56.01544003 -57.20317268 52.71199894 C-57.20551385 51.76409116 -57.20785502 50.81618338 -57.21026713 49.83955112 C-57.17260881 36.47820355 -55.44599003 23.2796861 -45.71795654 13.21748352 C-32.19049928 2.61163685 -16.72722309 -0.00308899 0 0 Z " fill="#FEFEFE" transform="translate(1130.0773315429688,339.8528289794922)"/>
<path d="M0 0 C0.72951874 0.06312378 1.45903748 0.12624756 2.21066284 0.19128418 C24.17525066 2.12530032 38.19877463 7.79667742 52.9375 24.625 C61.24686333 35.34098382 65.22880801 46.8829707 69.25 59.6875 C69.84778667 61.53769927 70.44738848 63.38731309 71.04882812 65.23632812 C73.42553328 72.57358424 75.73467274 79.93021087 77.98046875 87.30859375 C80.4725949 95.46661302 83.21910353 103.54028754 85.9375 111.625 C86.98103297 114.72854435 88.02237755 117.8328112 89.0625 120.9375 C89.29179199 121.61707764 89.52108398 122.29665527 89.75732422 122.99682617 C91.12964418 127.09381973 92.42555725 131.20798423 93.68115234 135.34228516 C96.60499056 144.89004917 99.77628576 154.35683455 102.9140625 163.8359375 C103.59895462 165.90839803 104.28371007 167.98090373 104.96833801 170.05345154 C106.41553734 174.43386012 107.86345991 178.81402863 109.3119812 183.19400024 C113.09027488 194.61910181 116.86342166 206.04590373 120.63671875 217.47265625 C121.00682886 218.5933444 121.37693897 219.71403255 121.75826454 220.86868095 C127.32214185 237.71684605 132.86796593 254.57065714 138.375 271.4375 C145.46758807 293.1565444 152.60386131 314.86103077 159.75 336.5625 C161.99364851 343.37624976 164.23718461 350.19003652 166.48046875 357.00390625 C166.75590075 357.84051474 167.03133274 358.67712322 167.31511116 359.53908348 C173.16409973 377.30602855 178.99721625 395.07816191 184.82562256 412.85186768 C186.09587791 416.72549996 187.36623422 420.59909912 188.63671875 424.47265625 C188.84758621 425.11557114 189.05845367 425.75848602 189.27571106 426.42088318 C192.87217827 437.38530953 196.4758968 448.34734349 200.08203125 459.30859375 C200.60674059 460.90355419 201.13144965 462.49851472 201.65615845 464.09347534 C202.44386105 466.48783724 203.23156469 468.8821988 204.01926994 471.27655983 C211.67487768 494.54736828 219.32726808 517.81893018 226.89379883 541.11889648 C230.12866032 551.07869586 233.37876396 561.03338129 236.640625 570.984375 C237.04822052 572.22814911 237.45581604 573.47192322 237.87576294 574.75338745 C239.88233547 580.87595284 241.89017034 586.9980999 243.89990234 593.11962891 C250.47920705 613.17996646 250.47920705 613.17996646 253.18603516 622.17553711 C253.72058977 623.91796286 254.28440896 625.65152647 254.86791992 627.37817383 C258.35128743 637.72451205 259.07883993 650.30111877 254.375 660.3125 C246.30148739 673.86779715 231.70041443 681.16061351 216.9375 685.625 C202.70637246 689.17919902 189.23589342 691.29179339 176.00390625 683.609375 C163.06983046 675.23929793 158.55844004 661.70106465 153.9375 647.6875 C153.36994199 645.99501101 152.80156159 644.30279761 152.23242188 642.61083984 C150.44791629 637.28861713 148.68935437 631.95804707 146.9375 626.625 C146.53047852 625.38692596 146.53047852 625.38692596 146.11523438 624.12384033 C143.34571241 615.69292862 140.59949517 607.25454621 137.86624146 598.81181335 C134.48952597 588.38224165 131.08543011 577.96186805 127.6640625 567.546875 C127.43392708 566.84622295 127.20379166 566.14557091 126.96668243 565.42368698 C124.88419467 559.08383688 122.80089111 552.74425526 120.71557617 546.40533447 C119.4162296 542.4554226 118.11774636 538.50522807 116.8203125 534.5546875 C116.50204184 533.58559826 116.50204184 533.58559826 116.17734146 532.59693146 C113.48659371 524.39942258 110.83226678 516.19121275 108.21875 507.96875 C102.07877812 488.67676305 95.66414755 469.47302356 89.3125 450.25 C87.05666247 443.4220733 84.80145104 436.59394046 82.54764557 429.76534271 C81.90745471 427.82569438 81.26715048 425.88608346 80.62673187 423.94651031 C77.07203422 413.17853631 73.53397486 402.40543755 70.03222656 391.62011719 C69.71529909 390.64433653 69.39837162 389.66855587 69.07184029 388.6632061 C67.56887614 384.03404237 66.06857023 379.40404251 64.57260132 374.77261353 C62.26128876 367.63390889 59.92928423 360.51990943 57.35302734 353.47119141 C55.56447981 348.53771458 53.99904393 343.58413928 52.54858398 338.54443359 C49.68079654 328.58023365 46.42520636 318.75393935 43.16015625 308.9140625 C42.50554337 306.93395772 41.85120743 304.95376137 41.1971283 302.97348022 C39.48039779 297.77795768 37.76053894 292.58347669 36.03979492 287.38928223 C32.99294036 278.1904141 29.95159721 268.98972163 26.91015625 259.7890625 C26.57600645 258.7785552 26.24185665 257.7680479 25.8975811 256.72691917 C20.52799017 240.48590364 15.21226976 224.22789325 9.92584229 207.9596405 C6.27848143 196.73622415 2.61356971 185.5187927 -1.07421875 174.30859375 C-1.31194693 173.58582245 -1.5496751 172.86305115 -1.79460716 172.11837769 C-3.68239903 166.37939626 -5.5715992 160.64087875 -7.46130371 154.90252686 C-9.1249032 149.85069845 -10.78772469 144.79861503 -12.44921875 139.74609375 C-12.67886196 139.04777813 -12.90850517 138.34946251 -13.14510727 137.62998581 C-18.50851112 121.31365916 -23.79122091 104.97128383 -29.0625 88.625 C-32.24698364 96.24950039 -34.9235021 103.99049952 -37.484375 111.84375 C-37.90477748 113.1255167 -38.32542812 114.40720203 -38.74630737 115.68881226 C-39.87151867 119.11838189 -40.99239631 122.54935293 -42.11225128 125.98067474 C-42.81978538 128.14730954 -43.52865765 130.31350198 -44.23797607 132.47955322 C-50.44005836 151.41942954 -56.56379436 170.38258115 -62.60162354 189.3755188 C-69.47872934 210.98764282 -76.5833736 232.52420249 -83.6875 254.0625 C-84.13294222 255.41301138 -84.13294222 255.41301138 -84.58738327 256.79080582 C-86.06557383 261.27227524 -87.54390581 265.75369801 -89.02223206 270.23512268 C-89.30787081 271.1010309 -89.59350956 271.96693913 -89.88780403 272.85908699 C-90.45850165 274.58912041 -91.02922473 276.31914543 -91.59997368 278.04916191 C-96.01072628 291.41971713 -100.40107289 304.79668624 -104.75 318.1875 C-105.01266663 318.99621552 -105.27533325 319.80493103 -105.54595947 320.63815308 C-106.58157535 323.82725049 -107.61698079 327.01641604 -108.6519165 330.20573425 C-111.76648291 339.80056272 -114.90118569 349.38881717 -118.03421021 358.97763062 C-120.71284985 367.17635869 -123.38964854 375.37568821 -126.06665039 383.57495117 C-126.73310607 385.6161453 -127.39961035 387.65732357 -128.06616211 389.69848633 C-130.01285816 395.65997623 -131.95842656 401.62183188 -133.90234375 407.58422852 C-134.49896396 409.41361844 -135.09595587 411.2428872 -135.69335938 413.07202148 C-136.52056097 415.60497146 -137.34637519 418.13836997 -138.171875 420.671875 C-138.40662537 421.38966125 -138.64137573 422.10744751 -138.88323975 422.84698486 C-140.26890306 427.10537967 -141.60151629 431.37717461 -142.90771484 435.66064453 C-145.30581812 443.47930423 -147.86526028 451.24266614 -150.4296875 459.0078125 C-150.94635124 460.57560572 -151.4628835 462.14344227 -151.97929382 463.71131897 C-153.0682373 467.01685727 -154.15786912 470.32216745 -155.24807739 473.62728882 C-158.09186864 482.24913447 -160.93059854 490.87264737 -163.76953125 499.49609375 C-164.0483634 500.34294802 -164.32719555 501.18980228 -164.61447716 502.0623188 C-170.31790517 519.38547543 -175.97400705 536.72370701 -181.6053009 554.07043457 C-183.7037579 560.53059993 -185.81540373 566.98640553 -187.9296875 573.44140625 C-188.9459365 576.54588065 -189.96210713 579.6503807 -190.97827148 582.75488281 C-191.65472986 584.82062667 -192.33164401 586.88622134 -193.0090332 588.95166016 C-196.79803539 600.50742624 -200.53470281 612.07661092 -204.1640625 623.68359375 C-204.83591798 625.82327387 -205.50787306 627.96292272 -206.17993164 630.10253906 C-207.44224095 634.12270409 -208.68924959 638.14717132 -209.92749023 642.17480469 C-214.92373931 658.22798273 -220.54803975 675.8613536 -235.75 685.1875 C-250.84553871 691.73839416 -267.04113727 689.10028354 -282.0625 683.625 C-295.03070248 678.33100093 -307.48009097 671.375508 -314.4375 658.75 C-319.66638352 645.73294821 -315.09051447 632.23679839 -311.0625 619.625 C-310.66942154 618.39094421 -310.66942154 618.39094421 -310.2684021 617.13195801 C-308.09110209 610.32573907 -305.85909685 603.53774129 -303.625 596.75 C-302.85490301 594.40377934 -302.08497155 592.05750435 -301.31518555 589.71118164 C-298.56946621 581.34741575 -295.81670818 572.98597383 -293.0625 564.625 C-292.7922702 563.80465523 -292.52204041 562.98431046 -292.24362183 562.13910675 C-286.31356904 544.13798834 -280.37925435 526.1382749 -274.44238281 508.1394043 C-266.73920556 484.78503728 -259.04707349 461.42710313 -251.375 438.0625 C-249.52617447 432.43224805 -247.6772628 426.8020244 -245.828125 421.171875 C-245.59778313 420.47053688 -245.36744125 419.76919876 -245.13011932 419.04660797 C-238.97224064 400.29845141 -232.79819716 381.55561688 -226.625 362.8125 C-218.07628995 336.85647882 -209.53305122 310.89867341 -201 284.9375 C-192.96687672 260.49743307 -184.92830093 236.05916844 -176.88460922 211.62257767 C-168.90430723 187.3783246 -160.92489023 163.1337808 -152.9524622 138.88693714 C-151.4552208 134.33362558 -149.95706084 129.78061755 -148.45815754 125.22785282 C-143.61227262 110.50801999 -138.78176689 95.78358037 -134.00230408 81.04203033 C-132.62005094 76.78116599 -131.23395379 72.52155007 -129.84793472 68.26190948 C-128.76477331 64.93138441 -127.68467501 61.59993134 -126.61187744 58.26605225 C-125.44220995 54.63470867 -124.26308618 51.00655922 -123.08203125 47.37890625 C-122.57895699 45.80292915 -122.57895699 45.80292915 -122.0657196 44.19511414 C-116.77479009 28.04089579 -108.97520504 15.24530596 -93.47631836 7.29907227 C-85.27577156 3.63851521 -77.21619068 2.32678504 -68.375 1.375 C-67.01218064 1.21514611 -65.64954781 1.05369363 -64.28710938 0.890625 C-61.68353126 0.58181202 -59.07965037 0.28758721 -56.47338867 0.00097656 C-54.48249575 -0.21847624 -52.49245619 -0.446616 -50.50512695 -0.69628906 C-33.78564402 -2.78132012 -16.72121544 -1.47739283 0 0 Z " fill="#FEFEFE" transform="translate(741.0625,337.375)"/>
<path d="M0 0 C15.40104277 10.02603497 26.33370829 26.09885799 30.24121094 43.97509766 C32.89828941 61.63039597 29.02490173 80.0253168 18.90136719 94.75244141 C8.49045012 108.45874956 -5.56603316 118.48442755 -22.68847656 121.70947266 C-43.11698373 124.01627477 -59.56162852 120.70795043 -76.48535156 108.53369141 C-85.33608082 101.38703183 -91.81242416 91.48250937 -96.28613281 81.11572266 C-96.78306641 80.01550781 -96.78306641 80.01550781 -97.29003906 78.89306641 C-103.56196462 61.40546219 -101.50122035 42.44991046 -93.78222656 25.88916016 C-85.27035138 10.01400018 -71.71878772 -1.60547269 -54.59082031 -7.22802734 C-53.83027344 -7.44458984 -53.06972656 -7.66115234 -52.28613281 -7.88427734 C-51.68623535 -8.05862305 -51.08633789 -8.23296875 -50.46826172 -8.41259766 C-33.55961803 -12.06749804 -14.72642966 -8.67204787 0 0 Z " fill="#FDFDFD" transform="translate(745.2861328125,756.88427734375)"/>
</svg>
